<svg viewBox="0 0 24 24" width="1em" height="1em" xmlns="http://www.w3.org/2000/svg">
  <title>RightCode</title>
  <path d="M3 4h6c2.2 0 4 1.8 4 4 0 1.5-.8 2.8-2 3.5L14 17h-3l-2.5-5H5v5H3V4zm2 2v4h4c1.1 0 2-.9 2-2s-.9-2-2-2H5z" fill="#E96B2C"/>
  <path d="M21 8.5c0-2.5-2-4.5-4.5-4.5-1.5 0-2.8.7-3.6 1.8l1.5 1.2c.5-.7 1.2-1 2.1-1 1.4 0 2.5 1.1 2.5 2.5v.5h-1c-2.5 0-4.5 1.3-4.5 3.5 0 1.9 1.6 3.5 3.5 3.5 1.2 0 2.3-.6 3-1.5V16h2V8.5zM17 14c-1.1 0-2-.7-2-1.5s.9-1.5 2-1.5h2v1c0 1.1-.9 2-2 2z" fill="#E96B2C"/>
  <rect x="3" y="18" width="18" height="2" rx="1" fill="#E96B2C"/>
</svg>
